<svg width="2097" height="540" viewBox="0 0 2097 540" fill="none" xmlns="http://www.w3.org/2000/svg">
<path fill-rule="evenodd" clip-rule="evenodd" d="M58 254C58 245.716 64.716 239 73 239H88C96.284 239 103 245.716 103 254C103 262.284 96.284 269 88 269H73C64.716 269 58 262.284 58 254ZM478 239L492.5 239C500.784 239 507.5 245.716 507.5 254C507.5 262.284 500.784 269 492.5 269L478 269C469.716 269 463 262.284 463 254C463 245.716 469.716 239 478 239ZM193 98.1151C185.847 102.246 176.665 99.8211 172.51 92.6251L164.52 81.6441C160.378 74.4701 162.836 65.2961 170.01 61.1541C177.184 57.0111 186.359 59.4701 190.5 66.6441L198.49 77.6251C202.632 84.7991 200.174 93.9731 193 98.1151ZM111.5 138.02L121.625 143.51C128.799 147.652 131.257 156.826 127.115 164C122.96 171.198 113.775 173.618 106.625 169.49L96.5 164C89.326 159.858 86.868 150.684 91.01 143.51C95.151 136.336 104.326 133.877 111.5 138.02ZM393.49 92.6251C389.333 99.8241 380.149 102.243 373 98.1151C365.825 93.9731 363.367 84.7991 367.51 77.6251L376.02 66.6441C380.161 59.4701 389.335 57.011 396.51 61.154C403.685 65.2961 406.143 74.4701 402 81.6441L393.49 92.6251ZM457.51 135.51C464.685 131.368 473.857 133.825 478 141C482.142 148.174 479.684 157.348 472.51 161.49L459.376 169.49C452.222 173.62 443.041 171.197 438.886 164C434.743 156.826 437.201 147.652 444.376 143.51L457.51 135.51ZM298 59.0001C298 67.2841 291.284 74.0001 283 74.0001C274.716 74.0001 268 67.2841 268 59.0001V46.154C268 37.87 274.716 31.154 283 31.154C291.284 31.154 298 37.87 298 46.154V59.0001ZM133 254C133 171.29 200.29 104 283 104C365.71 104 433 171.29 433 254C433 308.517 407.043 337.216 384.137 362.542L384.12 362.56L384.102 362.58C362.05 386.972 343 408.042 343 451L285 472L223 451C223 408.042 203.95 386.972 181.898 362.58L181.88 362.56L181.863 362.542C158.957 337.216 133 308.517 133 254ZM375.881 181.388C376.948 184.855 380.87 187.321 384.532 187.162C387.429 186.158 389.708 184.63 389.297 180.805C387.183 161.13 343.857 127.87 325.708 128.657C322.354 128.803 319.934 131.104 319.266 135.086C319.433 138.917 322.503 141.923 326.317 142.687C340.724 145.576 371.48 167.083 375.881 181.388Z" fill="url(#paint0_linear_301_234)"/>
<path d="M222.826 466C222.826 471.18 223.486 476.2 224.726 481C231.406 506.85 254.926 526 282.826 526C310.726 526 334.246 506.85 340.926 481C342.166 476.2 342.826 471.18 342.826 466V451H222.826V466Z" fill="url(#paint1_linear_301_234)"/>
<path d="M219.252 261.999L238.967 242.235C243.212 237.975 243.212 231.073 238.967 226.814C234.719 222.557 227.833 222.557 223.587 226.814L196.184 254.29C191.939 258.547 191.939 265.451 196.184 269.709L223.587 297.185C227.833 301.442 234.719 301.442 238.967 297.185C243.212 292.925 243.212 286.023 238.967 281.764L219.252 261.999Z" fill="url(#paint2_linear_301_234)"/>
<path d="M346.748 261.999L327.033 281.764C322.788 286.023 322.788 292.925 327.033 297.185C331.281 301.442 338.167 301.442 342.413 297.185L369.816 269.709C374.061 265.451 374.061 258.547 369.816 254.29L342.413 226.814C338.167 222.557 331.281 222.557 327.033 226.814C322.788 231.073 322.788 237.975 327.033 242.235L346.748 261.999Z" fill="url(#paint3_linear_301_234)"/>
<path d="M292.269 219.03L254.278 295.217C251.591 300.603 253.768 307.153 259.14 309.845C264.534 312.55 271.055 310.335 273.731 304.97L311.722 228.782C314.409 223.396 312.232 216.848 306.858 214.154C301.484 211.46 294.956 213.645 292.269 219.03Z" fill="url(#paint4_linear_301_234)"/>
<path d="M604.98 395C599.92 395 595.85 393.35 592.77 390.05C589.91 386.75 588.26 383.01 587.82 378.83C587.6 374.43 588.81 370.58 591.45 367.28L752.82 167.63H608.28C602.78 167.63 598.6 166.31 595.74 163.67C593.1 160.81 591.89 157.29 592.11 153.11C591.89 148.49 593.43 144.75 596.73 141.89C600.03 138.81 604.1 137.27 608.94 137.27H779.22C784.28 137.27 788.35 138.81 791.43 141.89C794.51 144.97 796.27 148.71 796.71 153.11C797.15 157.29 795.94 161.03 793.08 164.33L631.05 364.64H779.22C784.28 364.64 788.35 366.18 791.43 369.26C794.51 372.12 796.05 375.53 796.05 379.49C796.05 384.33 794.51 388.18 791.43 391.04C788.35 393.68 784.28 395 779.22 395H604.98ZM920.522 396.65C905.342 396.65 891.702 393.46 879.602 387.08C867.722 380.48 858.262 370.91 851.222 358.37C844.402 345.83 840.992 330.43 840.992 312.17V230.99C840.992 226.15 842.532 222.19 845.612 219.11C848.912 215.81 852.982 214.16 857.822 214.16C862.662 214.16 866.622 215.81 869.702 219.11C873.002 222.19 874.652 226.15 874.652 230.99V312.17C874.652 324.49 876.962 334.72 881.582 342.86C886.202 350.78 892.472 356.72 900.392 360.68C908.312 364.42 917.222 366.29 927.122 366.29C936.582 366.29 944.942 364.42 952.202 360.68C959.682 356.94 965.622 351.88 970.022 345.5C974.422 339.12 976.622 331.97 976.622 324.05H997.412C997.412 337.69 994.002 350.01 987.182 361.01C980.582 372.01 971.452 380.7 959.792 387.08C948.352 393.46 935.262 396.65 920.522 396.65ZM993.452 395C988.612 395 984.542 393.46 981.242 390.38C978.162 387.08 976.622 383.01 976.622 378.17V230.99C976.622 225.93 978.162 221.86 981.242 218.78C984.542 215.7 988.612 214.16 993.452 214.16C998.512 214.16 1002.58 215.7 1005.66 218.78C1008.74 221.86 1010.28 225.93 1010.28 230.99V378.17C1010.28 383.01 1008.74 387.08 1005.66 390.38C1002.58 393.46 998.512 395 993.452 395ZM1068.57 321.41C1063.73 321.41 1059.66 319.87 1056.36 316.79C1053.28 313.71 1051.74 309.75 1051.74 304.91C1051.74 299.85 1053.28 295.78 1056.36 292.7C1059.66 289.62 1063.73 288.08 1068.57 288.08H1142.16C1147 288.08 1150.96 289.62 1154.04 292.7C1157.12 295.78 1158.66 299.85 1158.66 304.91C1158.66 309.75 1157.12 313.71 1154.04 316.79C1150.96 319.87 1147 321.41 1142.16 321.41H1068.57ZM1181.55 395C1175.39 395 1170.66 392.36 1167.36 387.08C1164.06 381.8 1163.73 376.19 1166.37 370.25L1259.1 148.82C1262.4 141.12 1267.79 137.27 1275.27 137.27C1283.19 137.27 1288.58 141.12 1291.44 148.82L1384.5 370.91C1386.92 377.07 1386.48 382.68 1383.18 387.74C1380.1 392.58 1375.37 395 1368.99 395C1365.69 395 1362.5 394.12 1359.42 392.36C1356.56 390.38 1354.47 387.74 1353.15 384.44L1271.31 181.16H1280.55L1197.39 384.44C1195.85 387.96 1193.54 390.6 1190.46 392.36C1187.6 394.12 1184.63 395 1181.55 395ZM1199.04 338.24L1212.24 309.86H1341.6L1354.8 338.24H1199.04ZM1437.34 472.22C1432.5 472.22 1428.43 470.57 1425.13 467.27C1422.05 464.19 1420.51 460.23 1420.51 455.39V304.91C1420.73 287.53 1424.8 271.91 1432.72 258.05C1440.64 244.19 1451.42 233.3 1465.06 225.38C1478.7 217.24 1494.1 213.17 1511.26 213.17C1528.64 213.17 1544.15 217.24 1557.79 225.38C1571.43 233.3 1582.21 244.19 1590.13 258.05C1598.27 271.91 1602.34 287.53 1602.34 304.91C1602.34 322.29 1598.6 337.91 1591.12 351.77C1583.86 365.41 1573.85 376.3 1561.09 384.44C1548.33 392.36 1533.92 396.32 1517.86 396.32C1504.88 396.32 1492.89 393.68 1481.89 388.4C1471.11 382.9 1461.87 375.53 1454.17 366.29V455.39C1454.17 460.23 1452.63 464.19 1449.55 467.27C1446.47 470.57 1442.4 472.22 1437.34 472.22ZM1511.26 366.62C1522.48 366.62 1532.49 363.98 1541.29 358.7C1550.09 353.2 1557.02 345.83 1562.08 336.59C1567.36 327.13 1570 316.57 1570 304.91C1570 293.03 1567.36 282.47 1562.08 273.23C1557.02 263.77 1550.09 256.4 1541.29 251.12C1532.49 245.62 1522.48 242.87 1511.26 242.87C1500.26 242.87 1490.25 245.62 1481.23 251.12C1472.43 256.4 1465.5 263.77 1460.44 273.23C1455.38 282.47 1452.85 293.03 1452.85 304.91C1452.85 316.57 1455.38 327.13 1460.44 336.59C1465.5 345.83 1472.43 353.2 1481.23 358.7C1490.25 363.98 1500.26 366.62 1511.26 366.62ZM1669.37 472.22C1664.53 472.22 1660.46 470.57 1657.16 467.27C1654.08 464.19 1652.54 460.23 1652.54 455.39V304.91C1652.76 287.53 1656.83 271.91 1664.75 258.05C1672.67 244.19 1683.45 233.3 1697.09 225.38C1710.73 217.24 1726.13 213.17 1743.29 213.17C1760.67 213.17 1776.18 217.24 1789.82 225.38C1803.46 233.3 1814.24 244.19 1822.16 258.05C1830.3 271.91 1834.37 287.53 1834.37 304.91C1834.37 322.29 1830.63 337.91 1823.15 351.77C1815.89 365.41 1805.88 376.3 1793.12 384.44C1780.36 392.36 1765.95 396.32 1749.89 396.32C1736.91 396.32 1724.92 393.68 1713.92 388.4C1703.14 382.9 1693.9 375.53 1686.2 366.29V455.39C1686.2 460.23 1684.66 464.19 1681.58 467.27C1678.5 470.57 1674.43 472.22 1669.37 472.22ZM1743.29 366.62C1754.51 366.62 1764.52 363.98 1773.32 358.7C1782.12 353.2 1789.05 345.83 1794.11 336.59C1799.39 327.13 1802.03 316.57 1802.03 304.91C1802.03 293.03 1799.39 282.47 1794.11 273.23C1789.05 263.77 1782.12 256.4 1773.32 251.12C1764.52 245.62 1754.51 242.87 1743.29 242.87C1732.29 242.87 1722.28 245.62 1713.26 251.12C1704.46 256.4 1697.53 263.77 1692.47 273.23C1687.41 282.47 1684.88 293.03 1684.88 304.91C1684.88 316.57 1687.41 327.13 1692.47 336.59C1697.53 345.83 1704.46 353.2 1713.26 358.7C1722.28 363.98 1732.29 366.62 1743.29 366.62ZM1950.24 396.32C1934.84 396.32 1920.54 394.01 1907.34 389.39C1894.36 384.55 1884.24 378.5 1876.98 371.24C1873.68 367.72 1872.25 363.76 1872.69 359.36C1873.35 354.74 1875.55 351 1879.29 348.14C1883.69 344.62 1887.98 343.19 1892.16 343.85C1896.56 344.29 1900.3 346.16 1903.38 349.46C1907.12 353.64 1913.06 357.6 1921.2 361.34C1929.56 364.86 1938.8 366.62 1948.92 366.62C1961.68 366.62 1971.36 364.53 1977.96 360.35C1984.78 356.17 1988.3 350.78 1988.52 344.18C1988.74 337.58 1985.55 331.86 1978.95 327.02C1972.57 322.18 1960.8 318.22 1943.64 315.14C1921.42 310.74 1905.25 304.14 1895.13 295.34C1885.23 286.54 1880.28 275.76 1880.28 263C1880.28 251.78 1883.58 242.54 1890.18 235.28C1896.78 227.8 1905.25 222.3 1915.59 218.78C1925.93 215.04 1936.71 213.17 1947.93 213.17C1962.45 213.17 1975.32 215.48 1986.54 220.1C1997.76 224.72 2006.67 231.1 2013.27 239.24C2016.35 242.76 2017.78 246.5 2017.56 250.46C2017.34 254.2 2015.47 257.39 2011.95 260.03C2008.43 262.45 2004.25 263.22 1999.41 262.34C1994.57 261.46 1990.5 259.48 1987.2 256.4C1981.7 251.12 1975.76 247.49 1969.38 245.51C1963 243.53 1955.63 242.54 1947.27 242.54C1937.59 242.54 1929.34 244.19 1922.52 247.49C1915.92 250.79 1912.62 255.63 1912.62 262.01C1912.62 265.97 1913.61 269.6 1915.59 272.9C1917.79 275.98 1921.97 278.84 1928.13 281.48C1934.29 283.9 1943.31 286.32 1955.19 288.74C1971.69 292.04 1984.67 296.22 1994.13 301.28C2003.81 306.34 2010.74 312.28 2014.92 319.1C2019.1 325.7 2021.19 333.4 2021.19 342.2C2021.19 352.32 2018.44 361.45 2012.94 369.59C2007.66 377.73 1999.74 384.22 1989.18 389.06C1978.84 393.9 1965.86 396.32 1950.24 396.32Z" fill="url(#paint5_linear_301_234)"/>
<path d="M570 436.25H2034.06V452.75H570V436.25Z" fill="url(#paint6_linear_301_234)"/>
<defs>
<linearGradient id="paint0_linear_301_234" x1="283" y1="800" x2="283" y2="-12.5" gradientUnits="userSpaceOnUse">
<stop stop-color="#FF1D7E"/>
<stop offset="1" stop-color="#FEBC3E" stop-opacity="0.71"/>
</linearGradient>
<linearGradient id="paint1_linear_301_234" x1="283" y1="516" x2="283" y2="16.5" gradientUnits="userSpaceOnUse">
<stop stop-color="#FFE59A"/>
<stop offset="1" stop-color="#FFFFD5"/>
</linearGradient>
<linearGradient id="paint2_linear_301_234" x1="283" y1="516" x2="283" y2="16.5" gradientUnits="userSpaceOnUse">
<stop stop-color="#FFE59A"/>
<stop offset="1" stop-color="#FFFFD5"/>
</linearGradient>
<linearGradient id="paint3_linear_301_234" x1="283" y1="516" x2="283" y2="16.5" gradientUnits="userSpaceOnUse">
<stop stop-color="#FFE59A"/>
<stop offset="1" stop-color="#FFFFD5"/>
</linearGradient>
<linearGradient id="paint4_linear_301_234" x1="283" y1="516" x2="283" y2="16.5" gradientUnits="userSpaceOnUse">
<stop stop-color="#FFE59A"/>
<stop offset="1" stop-color="#FFFFD5"/>
</linearGradient>
<linearGradient id="paint5_linear_301_234" x1="1303.31" y1="745.801" x2="1303.31" y2="67.5594" gradientUnits="userSpaceOnUse">
<stop stop-color="#FF1D7E"/>
<stop offset="1" stop-color="#FEBC3E" stop-opacity="0.71"/>
</linearGradient>
<linearGradient id="paint6_linear_301_234" x1="1303.31" y1="745.801" x2="1303.31" y2="67.5594" gradientUnits="userSpaceOnUse">
<stop stop-color="#FF1D7E"/>
<stop offset="1" stop-color="#FEBC3E" stop-opacity="0.71"/>
</linearGradient>
</defs>
</svg>
